PathFileType	4	(X/Y/Z)	/Users/itak/Documents/Research/Walk-IL/dataset/trc/00125_00007.trc
DataRate	CameraRate	NumFrames	NumMarkers	Units	OrigDataRate	OrigDataStartFrame	OrigNumFrames
100.000000	100.000000	4	53	mm	100.000000	272	727
Frame#	Time	RPSI			LPSI			L3			STRN			T10			C7			CLAV			RBAK			LBAK			LSHO			LUPA			LAEL			LAOL			LWTS			LWPS			LFRA			LIFD			LHPS			LHTS			RSHO			RUPA			RAEL			RAOL			RWTS			RWPS			RFRA			RIFD			RHTS			RHPS			RBHD			LFHD			RFHD			LBHD			LHIP			RHIP			RASI			LASI			LKNE			LTHI			LANK			LTIP			LTOE			LMT1			LMT5			LHEE			RKNE			RTHI			RANK			RTIP			RTOE			RMT1			RMT5			RHEE			
		X1	Y1	Z1	X2	Y2	Z2	X3	Y3	Z3	X4	Y4	Z4	X5	Y5	Z5	X6	Y6	Z6	X7	Y7	Z7	X8	Y8	Z8	X9	Y9	Z9	X10	Y10	Z10	X11	Y11	Z11	X12	Y12	Z12	X13	Y13	Z13	X14	Y14	Z14	X15	Y15	Z15	X16	Y16	Z16	X17	Y17	Z17	X18	Y18	Z18	X19	Y19	Z19	X20	Y20	Z20	X21	Y21	Z21	X22	Y22	Z22	X23	Y23	Z23	X24	Y24	Z24	X25	Y25	Z25	X26	Y26	Z26	X27	Y27	Z27	X28	Y28	Z28	X29	Y29	Z29	X30	Y30	Z30	X31	Y31	Z31	X32	Y32	Z32	X33	Y33	Z33	X34	Y34	Z34	X35	Y35	Z35	X36	Y36	Z36	X37	Y37	Z37	X38	Y38	Z38	X39	Y39	Z39	X40	Y40	Z40	X41	Y41	Z41	X42	Y42	Z42	X43	Y43	Z43	X44	Y44	Z44	X45	Y45	Z45	X46	Y46	Z46	X47	Y47	Z47	X48	Y48	Z48	X49	Y49	Z49	X50	Y50	Z50	X51	Y51	Z51	X52	Y52	Z52	X53	Y53	Z53	

273	2.72	940.7919311523438	1101.50390625	77.02695465087891	815.3306884765625	1107.539184570312	128.4638061523438	880.5065307617188	1144.983154296875	108.8105697631836	795.3289184570312	1340.591674804688	-99.22263336181641	899.810302734375	1293.488891601562	125.005989074707	863.164306640625	1585.212524414062	108.1621170043945	799.197509765625	1475.35546875	-61.61883926391602	973.6991577148438	1407.87744140625	117.7633590698242	776.7567749023438	1556.392578125	158.9718170166016	680.7461547851562	1537.1357421875	112.0600128173828	639.2275390625	1404.534057617188	166.8608551025391	628.8674926757812	1188.496826171875	183.0374908447266	714.1528930664062	1179.886840820312	207.2808990478516	606.1221923828125	936.877685546875	67.20207977294922	630.7599487304688	905.998046875	147.1279907226562	617.2994384765625	1074.078369140625	171.1124420166016	618.3709106445312	745.586181640625	31.75469589233398	613.8797607421875	832.72119140625	119.3124465942383	588.9269409179688	847.876708984375	54.45524215698242	1004.271545410156	1579.270629882812	-19.6247501373291	1072.771606445312	1509.798461914062	-32.17193603515625	1110.693603515625	1216.890991210938	-38.77367782592773	1026.572021484375	1209.815551757812	8.663259506225586	1049.104370117188	973.9193115234375	-171.1978454589844	1109.287963867188	959.4600219726562	-116.894889831543	1118.251220703125	1144.809204101562	-69.00501251220703	1028.7890625	779.6641235351562	-188.1726684570312	1046.095092773438	865.5365600585938	-202.8247375488281	1102.458618164062	861.18994140625	-154.9301300048828	876.76904296875	1779.8017578125	11.89881324768066	657.4435424804688	1782.761108398438	0.1802241504192352	738.5527954101562	1819.810791015625	-92.88054656982422	796.3955078125	1746.345092773438	115.1919021606445	677.9974365234375	1020.07275390625	75.99221801757812	999.7763671875	1007.74072265625	-87.80156707763672	924.5496215820312	1080.645874023438	-142.7535552978516	682.464599609375	1085.2587890625	-37.93123626708984	752.5696411132812	525.8438720703125	-63.90539169311523	714.4071655273438	660.8684692382812	-0.3104543089866638	866.1343994140625	32.44258499145508	-49.06496429443359	797.3023681640625	266.6417541503906	-12.37312030792236	831.3653564453125	37.01518630981445	-278.9900817871094	890.0451049804688	36.8172721862793	-219.5822296142578	798.1497802734375	43.89186477661133	-153.5732116699219	948.9603881835938	29.88003349304199	-10.27054786682129	970.3568115234375	519.8414916992188	-169.2003173828125	982.646484375	801.4940795898438	-139.8624114990234	1188.17919921875	211.4361114501953	213.2486724853516	1036.126586914062	428.6881713867188	-87.20606231689453	1088.290649414062	59.9307746887207	71.44656372070312	1058.009155273438	95.86497497558594	128.8139038085938	1177.781005859375	104.7411575317383	131.620849609375	1153.04248046875	256.6449890136719	263.1258544921875	
274	2.73	938.5941162109375	1101.668823242188	67.62439727783203	813.7850952148438	1107.871215820312	120.9069442749023	878.5127563476562	1145.258544921875	100.3996353149414	790.0315551757812	1341.313232421875	-105.8583450317383	897.9115600585938	1293.820190429688	116.6342544555664	861.370849609375	1585.540771484375	100.3901062011719	794.7162475585938	1476.03466796875	-68.320068359375	971.7503662109375	1408.150390625	108.3061065673828	775.7041015625	1556.906982421875	152.5526428222656	679.0452270507812	1538.049438476562	107.2655868530273	637.4989013671875	1405.34375	161.9040985107422	625.4095458984375	1189.102661132812	176.4313354492188	711.0263671875	1179.907836914062	200.2576751708984	599.313232421875	939.5509643554688	57.08099365234375	624.1305541992188	907.2444458007812	136.2607116699219	612.6268310546875	1075.058959960938	162.8990020751953	608.72802734375	748.7662963867188	18.73708152770996	606.2221069335938	834.627197265625	107.5904541015625	581.0732421875	850.9740600585938	43.21163940429688	1000.517272949219	1579.499877929688	-29.51424217224121	1068.756469726562	1509.962768554688	-43.03619384765625	1106.064208984375	1216.961791992188	-49.55001449584961	1022.71337890625	1210.429565429688	-0.8068775534629822	1042.619873046875	973.6575317382812	-180.4397277832031	1103.362426757812	959.3128051757812	-126.7194061279297	1113.166381835938	1144.81689453125	-79.62202453613281	1021.849792480469	779.4119262695312	-196.6636352539062	1039.115966796875	865.2496337890625	-211.7787170410156	1095.917114257812	860.8539428710938	-164.3983917236328	873.59521484375	1780.314086914062	3.664887189865112	654.3994750976562	1783.1025390625	-5.494663715362549	734.2013549804688	1819.901489257812	-99.72430419921875	794.3656616210938	1747.155029296875	107.990608215332	675.4495849609375	1020.213928222656	71.02749633789062	994.1419067382812	1008.54443359375	-98.85599517822266	917.8880615234375	1081.544311523438	-152.0278778076172	677.7562866210938	1085.78955078125	-42.84417724609375	751.1482543945312	525.2634887695312	-66.24604797363281	712.4559936523438	660.7828979492188	-3.555744409561157	866.2120971679688	32.54913330078125	-49.10576248168945	796.8440551757812	266.7114562988281	-13.45842838287354	831.1185302734375	36.74117279052734	-279.2360229492188	890.0114135742188	36.74086380004883	-219.7306060791016	798.1444091796875	43.80705642700195	-153.6692352294922	949.0499877929688	30.04697418212891	-10.38901996612549	957.6845092773438	522.4852905273438	-187.7225036621094	974.3582763671875	803.4003295898438	-153.875244140625	1184.820068359375	209.5444183349609	184.3934326171875	1025.30126953125	430.6201171875	-108.7992553710938	1084.52587890625	60.30320739746094	40.08011245727539	1055.029418945312	93.81098175048828	99.25191497802734	1174.510498046875	105.8571853637695	99.14852905273438	1150.151000976562	252.4392700195312	236.5066528320312	
275	2.74	936.2940063476562	1101.8525390625	58.2222785949707	812.2142333984375	1108.18505859375	113.3472061157227	876.432861328125	1145.480834960938	91.99611663818359	784.6583251953125	1341.964965820312	-112.4216690063477	895.9446411132812	1294.1123046875	108.310791015625	859.49853515625	1585.837768554688	92.65589904785156	790.1448974609375	1476.646728515625	-74.95840454101562	969.7024536132812	1408.3896484375	98.87844848632812	774.5880126953125	1557.378662109375	146.1556396484375	677.304443359375	1538.905517578125	102.577278137207	635.7551879882812	1406.079467773438	157.0593872070312	621.9569702148438	1189.660766601562	170.0964813232422	707.8531494140625	1179.913818359375	193.3667449951172	592.437255859375	942.2728271484375	47.2263298034668	617.500244140625	908.51123046875	125.5942459106445	607.9632568359375	1075.98486328125	154.9329528808594	599.1004028320312	752.1043701171875	5.856590747833252	598.5933837890625	836.5807495117188	96.05951690673828	573.0930786132812	854.1398315429688	32.23899841308594	996.6244506835938	1579.676635742188	-39.39236450195312	1064.592041015625	1510.085083007812	-53.89376449584961	1101.388061523438	1216.997680664062	-60.4071159362793	1018.91259765625	1211.03515625	-10.25177669525146	1036.0234375	973.4060668945312	-189.7543182373047	1097.400024414062	959.1575317382812	-136.7182312011719	1108.025756835938	1144.810180664062	-90.35201263427734	1014.662048339844	779.1692504882812	-205.1414642333984	1031.922607421875	864.9463500976562	-220.7661895751953	1089.2275390625	860.4968872070312	-174.0045623779297	870.3759155273438	1780.760375976562	-4.456948280334473	651.2241821289062	1783.4970703125	-11.12077236175537	729.8535766601562	1820.01513671875	-106.4583282470703	792.2793579101562	1747.906860351562	100.8798828125	672.9395751953125	1020.276916503906	66.06150054931641	988.5028686523438	1009.368957519531	-109.7705688476562	911.2334594726562	1082.438354492188	-161.1936340332031	673.1000366210938	1086.195922851562	-47.70416259765625	749.7947998046875	524.6171264648438	-68.49430084228516	710.541015625	660.6416625976562	-6.667402744293213	866.2906494140625	32.65801239013672	-49.16883087158203	796.4091796875	266.7821655273438	-14.51448440551758	830.8375854492188	36.39595031738281	-279.5355529785156	889.99658203125	36.67430877685547	-219.9252777099609	798.1353149414062	43.70326614379883	-153.7974853515625	949.1473999023438	30.22608184814453	-10.50298976898193	944.6901245117188	525.296875	-205.7253570556641	965.9983520507812	805.4326782226562	-167.6433868408203	1180.513916015625	206.7752075195312	154.9652862548828	1013.986328125	432.5092468261719	-130.0963745117188	1079.36962890625	60.29522705078125	7.934669494628906	1050.81005859375	91.41309356689453	68.84548950195312	1169.855346679688	106.4177856445312	65.98729705810547	1146.478881835938	247.2607574462891	209.3096313476562	
276	2.75	933.8619995117188	1102.051391601562	48.76714324951172	810.6450805664062	1108.466186523438	105.7887649536133	874.3013916015625	1145.642944335938	83.57522583007812	779.2169799804688	1342.533447265625	-118.9121246337891	893.9097290039062	1294.368041992188	100.044303894043	857.5313110351562	1586.101928710938	84.94594573974609	785.4913330078125	1477.18212890625	-81.54117584228516	967.5532836914062	1408.592529296875	89.49234008789062	773.3849487304688	1557.804809570312	139.7626190185547	675.514404296875	1539.672729492188	97.96127319335938	633.978515625	1406.73291015625	152.2940979003906	618.4984741210938	1190.17041015625	163.9902801513672	704.5884399414062	1179.84814453125	186.5431518554688	585.5302124023438	945.0234985351562	37.62690734863281	610.890380859375	909.7850341796875	115.1420669555664	603.3046264648438	1076.86083984375	147.1810302734375	589.5261840820312	755.5662841796875	-6.844665050506592	590.9964599609375	838.5646362304688	84.72487640380859	565.0015869140625	857.3650512695312	21.52410316467285	992.5956420898438	1579.796264648438	-49.24615859985352	1060.275146484375	1510.156127929688	-64.72815704345703	1096.660278320312	1216.99462890625	-71.34055328369141	1015.134765625	1211.578491210938	-19.71196365356445	1029.289672851562	973.1580200195312	-199.1335906982422	1091.39013671875	958.99072265625	-146.9077301025391	1102.819213867188	1144.781982421875	-101.198616027832	1007.27734375	778.9216918945312	-213.6215362548828	1024.522705078125	864.62548828125	-229.7888488769531	1082.419677734375	860.1387939453125	-183.7732238769531	867.1023559570312	1781.12890625	-12.47156238555908	647.9149780273438	1783.938354492188	-16.69697189331055	725.50146484375	1820.161010742188	-113.0782470703125	790.1337890625	1748.58154296875	93.85335540771484	670.5119018554688	1020.280334472656	61.12357330322266	982.8327026367188	1010.190979003906	-120.5953140258789	904.552001953125	1083.305786132812	-170.2629547119141	668.4718017578125	1086.484252929688	-52.48993682861328	748.5011596679688	523.9339599609375	-70.70018005371094	708.681884765625	660.4593505859375	-9.709308624267578	866.3679809570312	32.76842880249023	-49.25224304199219	795.9852294921875	266.857666015625	-15.57196998596191	830.5344848632812	35.99416732788086	-279.8741760253906	889.99560546875	36.60976791381836	-220.1467590332031	798.1217651367188	43.58129501342773	-153.9511871337891	949.2481079101562	30.40337562561035	-10.59866046905518	931.430419921875	528.2525634765625	-223.1661376953125	957.5487060546875	807.5313720703125	-181.1900787353516	1175.205688476562	203.1586303710938	125.0232086181641	1002.205993652344	434.2978210449219	-151.0251617431641	1072.608520507812	59.90327835083008	-24.75317001342773	1045.196655273438	88.75180053710938	37.78688049316406	1163.680541992188	106.3671340942383	32.31744766235352	1142.001953125	241.1896667480469	181.5656280517578	
